<svg width="19" height="19" viewBox="0 0 19 19" fill="none" xmlns="http://www.w3.org/2000/svg">
<path d="M0 5.38812C0 2.41234 2.41234 0 5.38812 0H13.4703C16.4461 0 18.8584 2.41234 18.8584 5.38812V13.4703C18.8584 16.4461 16.4461 18.8584 13.4703 18.8584H5.38812C2.41234 18.8584 0 16.4461 0 13.4703V5.38812Z" fill="#3F51B5"/>
<path d="M15.0391 10.0729H13.254V16.9651H10.6031V10.0729H9.01263V7.95226H10.6031V6.67448C10.6052 4.81476 11.3777 3.71094 13.5687 3.71094H15.3746V5.8316H14.1631C13.3099 5.8316 13.254 6.15052 13.254 6.74489V7.95226H15.3746L15.0391 10.0729Z" fill="white"/>
</svg>
