<svg width="20" height="19" viewBox="0 0 20 19" fill="none" xmlns="http://www.w3.org/2000/svg">
<path d="M13.9828 18.8584H5.6013C2.72016 18.8584 0.362854 16.5011 0.362854 13.62V5.23845C0.362854 2.3573 2.72016 0 5.6013 0H13.9828C16.864 0 19.2213 2.3573 19.2213 5.23845V13.62C19.2213 16.5011 16.864 18.8584 13.9828 18.8584Z" fill="#304FFE"/>
<path d="M0.362854 5.23845V13.62C0.362854 16.5011 2.72016 18.8584 5.6013 18.8584H13.9828C16.864 18.8584 19.2213 16.5011 19.2213 13.62V5.23845C19.2213 4.7146 19.1689 4.24314 19.0117 3.77168C16.0782 1.41438 12.3065 0 8.22053 0C6.2823 0 4.39646 0.314307 2.61539 0.942921C1.25339 1.88584 0.362854 3.45738 0.362854 5.23845Z" fill="#304FFE" fill-opacity="0.2902"/>
<path d="M8.22053 1.04736C5.6013 1.04736 3.19162 1.67598 0.991468 2.72367C0.572392 3.50943 0.362854 4.34759 0.362854 5.23812V13.6196C0.362854 16.5008 2.72016 18.8581 5.6013 18.8581H13.9828C16.864 18.8581 19.2213 16.5008 19.2213 13.6196V5.34289C16.3401 2.67128 12.4637 1.04736 8.22053 1.04736Z" fill="#6200EA"/>
<path d="M19.2213 6.81031C16.4449 3.92916 12.5684 2.0957 8.22053 2.0957C5.39176 2.0957 2.72016 2.88147 0.467623 4.24347C0.415238 4.55777 0.362854 4.87208 0.362854 5.23877V13.6203C0.362854 16.5014 2.72016 18.8587 5.6013 18.8587H13.9828C16.864 18.8587 19.2213 16.5014 19.2213 13.6203V6.81031Z" fill="#673AB7"/>
<path d="M19.2213 8.38151C16.6544 5.18606 12.6732 3.14307 8.22053 3.14307C5.287 3.14307 2.61539 4.0336 0.362854 5.55275V13.62C0.362854 16.5011 2.72016 18.8584 5.6013 18.8584H13.9828C16.864 18.8584 19.2213 16.5011 19.2213 13.62V8.38151Z" fill="#8E24AA"/>
<path d="M19.2213 13.6196V10.1623C16.864 6.60012 12.8304 4.19043 8.22053 4.19043C5.287 4.19043 2.563 5.18573 0.362854 6.80965V13.6196C0.362854 16.5008 2.72016 18.8581 5.6013 18.8581H13.9828C16.864 18.8581 19.2213 16.5008 19.2213 13.6196Z" fill="#C2185B"/>
<path d="M19.2213 13.6193V12.3621C17.3354 8.17132 13.1447 5.23779 8.22053 5.23779C5.23461 5.23779 2.45823 6.33787 0.362854 8.17132V13.6193C0.362854 16.5005 2.72016 18.8578 5.6013 18.8578H13.9828C16.864 18.8578 19.2213 16.5005 19.2213 13.6193Z" fill="#D81B60"/>
<path d="M19.0117 15.0867C18.0164 10.0578 13.5637 6.28613 8.22053 6.28613C5.12984 6.28613 2.35346 7.54336 0.362854 9.58636V13.62C0.362854 16.5011 2.72016 18.8584 5.6013 18.8584H13.9828C16.3401 18.8584 18.3831 17.2869 19.0117 15.0867Z" fill="#F50057"/>
<path d="M18.1212 16.7627C17.8593 11.5243 13.5637 7.3335 8.22053 7.3335C5.02507 7.3335 2.19631 8.85265 0.362854 11.2099V13.6196C0.362854 16.5008 2.72016 18.8581 5.6013 18.8581H13.9828C15.6591 18.8581 17.1783 18.0199 18.1212 16.7627Z" fill="#FF1744"/>
<path d="M8.22053 8.38135C4.81554 8.38135 1.882 10.2672 0.362854 13.096V13.6198C0.362854 16.5009 2.72016 18.8582 5.6013 18.8582H13.9828C15.1353 18.8582 16.2354 18.4916 17.0735 17.8106C17.0735 17.6534 17.1259 17.4439 17.1259 17.2867C17.1259 12.3626 13.1447 8.38135 8.22053 8.38135Z" fill="#FF5722"/>
<path d="M8.22048 9.4292C4.55356 9.4292 1.51526 11.8913 0.624725 15.2963C1.30572 17.3916 3.29633 18.8584 5.60125 18.8584H13.9828C14.7162 18.8584 15.3448 18.7013 15.9734 18.4393C16.0258 18.0726 16.0781 17.6536 16.0781 17.2869C16.0781 12.939 12.5684 9.4292 8.22048 9.4292Z" fill="#FF6F00"/>
<path d="M8.22055 10.4771C4.60602 10.4771 1.67249 13.2534 1.46295 16.7632C2.40587 18.0204 3.92502 18.8586 5.60133 18.8586H13.9828C14.2971 18.8586 14.5591 18.8062 14.8734 18.7538C14.9781 18.2823 15.0305 17.8109 15.0305 17.287C15.0305 13.5154 11.9922 10.4771 8.22055 10.4771Z" fill="#FF9800"/>
<path d="M13.7734 18.8582C13.9305 18.3344 13.9829 17.8106 13.9829 17.2867C13.9829 14.0913 11.4161 11.5244 8.22061 11.5244C5.02515 11.5244 2.45831 14.0913 2.45831 17.2867C2.45831 17.4439 2.45831 17.6534 2.5107 17.8106C3.40123 18.4392 4.44892 18.8582 5.60138 18.8582H13.7734Z" fill="#FFC107"/>
<path d="M8.22031 12.5713C5.60109 12.5713 3.50571 14.6667 3.50571 17.2859C3.50571 17.705 3.55809 18.124 3.66286 18.4907C4.23909 18.7527 4.92009 18.8574 5.60109 18.8574H12.673C12.8301 18.386 12.9349 17.8621 12.9349 17.2859C12.9349 14.6667 10.8395 12.5713 8.22031 12.5713Z" fill="#FFD54F"/>
<path d="M8.22056 13.6724C6.17757 13.6724 4.55365 15.2963 4.55365 17.3393C4.55365 17.8631 4.65842 18.3346 4.86796 18.806C5.12988 18.8584 5.33942 18.8584 5.60134 18.8584H11.5732C11.7827 18.387 11.8875 17.8631 11.8875 17.3393C11.8875 15.2963 10.2636 13.6724 8.22056 13.6724Z" fill="#FFE082"/>
<path d="M8.22054 14.7197C6.75378 14.7197 5.60132 15.8722 5.60132 17.339C5.60132 17.9152 5.81086 18.439 6.12516 18.8581H10.3159C10.6302 18.439 10.8398 17.9152 10.8398 17.339C10.8398 15.8722 9.68731 14.7197 8.22054 14.7197Z" fill="#FFECB3"/>
<path d="M12.9352 16.7634H6.64907C4.34415 16.7634 2.45831 14.8775 2.45831 12.5726V6.28646C2.45831 3.98154 4.34415 2.0957 6.64907 2.0957H12.9352C15.2401 2.0957 17.126 3.98154 17.126 6.28646V12.5726C17.126 14.8775 15.2401 16.7634 12.9352 16.7634ZM6.64907 3.14339C4.92038 3.14339 3.506 4.55777 3.506 6.28646V12.5726C3.506 14.3013 4.92038 15.7157 6.64907 15.7157H12.9352C14.6639 15.7157 16.0783 14.3013 16.0783 12.5726V6.28646C16.0783 4.55777 14.6639 3.14339 12.9352 3.14339H6.64907Z" fill="white"/>
<path d="M9.79216 13.0946C7.74916 13.0946 6.12524 11.4707 6.12524 9.42766C6.12524 7.38466 7.74916 5.76074 9.79216 5.76074C11.8352 5.76074 13.4591 7.38466 13.4591 9.42766C13.4591 11.4707 11.8352 13.0946 9.79216 13.0946ZM9.79216 6.80843C8.32539 6.80843 7.17293 7.96089 7.17293 9.42766C7.17293 10.8944 8.32539 12.0469 9.79216 12.0469C11.2589 12.0469 12.4114 10.8944 12.4114 9.42766C12.4114 7.96089 11.2589 6.80843 9.79216 6.80843Z" fill="white"/>
<path d="M13.9829 5.2382C13.9829 5.55251 13.7733 5.76205 13.459 5.76205C13.1447 5.76205 12.9352 5.55251 12.9352 5.2382C12.9352 4.92389 13.1447 4.71436 13.459 4.71436C13.7733 4.71436 13.9829 4.92389 13.9829 5.2382Z" fill="white"/>
</svg>
