<svg width="34" height="34" viewBox="0 0 34 34" fill="none" xmlns="http://www.w3.org/2000/svg">
<circle cx="17" cy="17" r="17" fill="white"/>
<path fill-rule="evenodd" clip-rule="evenodd" d="M24.8462 11.1239C24.7031 11.045 24.5386 11 24.3636 11H10C9.95213 11 9.90504 11.0034 9.85896 11.0099L17.1912 16.3868L24.8462 11.1239ZM9.05829 11.6628C9.02055 11.7681 9 11.8817 9 12V22C9 22.5523 9.44772 23 10 23H24.3636C24.9159 23 25.3636 22.5523 25.3636 22V12C25.3636 11.9939 25.3636 11.9879 25.3635 11.9819L17.4651 17.412L17.1725 17.6132L16.8861 17.4032L9.05829 11.6628Z" fill="#91B500"/>
</svg>
