<svg width="19" height="19" viewBox="0 0 19 19" fill="none" xmlns="http://www.w3.org/2000/svg">
<rect width="19" height="19" rx="5" fill="#FEA32A"/>
<g clip-path="url(#clip0)">
<path d="M9.50782 11.0437C8.73259 10.9628 8.0336 10.7719 7.43515 10.3038C7.3609 10.2456 7.28423 10.1895 7.21647 10.1244C6.95453 9.87287 6.92814 9.58475 7.13541 9.28783C7.31272 9.03375 7.61037 8.96578 7.91975 9.11167C7.97966 9.13995 8.03674 9.17524 8.09141 9.21316C9.20671 9.97949 10.7389 10.0006 11.8583 9.24761C11.9693 9.16257 12.0878 9.09324 12.2252 9.05784C12.4924 8.98924 12.7416 9.08737 12.8849 9.32114C13.0487 9.5881 13.0466 9.84868 12.8448 10.0559C12.5352 10.3737 12.1629 10.6036 11.7492 10.764C11.358 10.9157 10.9296 10.992 10.5055 11.0427C10.5695 11.1124 10.5997 11.1466 10.6397 11.1868C11.2155 11.7654 11.7938 12.3415 12.3678 12.9219C12.5633 13.1196 12.6041 13.3648 12.4965 13.5948C12.3788 13.8461 12.1153 14.0115 11.8569 13.9938C11.6932 13.9825 11.5655 13.901 11.4521 13.7867C11.0175 13.3495 10.5748 12.9203 10.1491 12.4747C10.0252 12.3452 9.96561 12.3697 9.85627 12.4822C9.41911 12.9322 8.97483 13.3753 8.52794 13.816C8.32727 14.0138 8.08848 14.0494 7.85576 13.9364C7.60838 13.8165 7.45097 13.564 7.46312 13.3102C7.4715 13.1385 7.55591 13.0074 7.67374 12.8898C8.24359 12.3208 8.81187 11.7503 9.38036 11.1804C9.41796 11.1424 9.45304 11.1022 9.50782 11.0437Z" fill="white"/>
<path d="M9.98003 9.06164C8.59703 9.05693 7.46299 7.91042 7.47105 6.52522C7.47901 5.12474 8.61379 3.99613 10.0104 4.00001C11.4098 4.00378 12.5331 5.14862 12.5261 6.56366C12.519 7.94603 11.3771 9.06646 9.98003 9.06164ZM11.2369 6.52858C11.2345 5.84079 10.6868 5.29325 10.0004 5.29262C9.30817 5.29189 8.7555 5.84938 8.76084 6.54345C8.76597 7.22861 9.31844 7.77228 10.0067 7.76976C10.693 7.76736 11.2392 7.21625 11.2369 6.52858Z" fill="white"/>
</g>
<defs>
<clipPath id="clip0">
<rect width="10" height="10" fill="white" transform="translate(5 4)"/>
</clipPath>
</defs>
</svg>
