<svg width="160" height="52" viewBox="0 0 160 52" fill="none" xmlns="http://www.w3.org/2000/svg">
<rect width="159.768" height="52" rx="10" fill="#003D7C"/>
<g clip-path="url(#clip0)">
<path fill-rule="evenodd" clip-rule="evenodd" d="M39.5806 36L43.7547 23.4415V36H49.9848V16.0061H41.5744L37.5246 26.0031L33.4751 16.0061H25.0643V36H31.2948V23.4415L35.4998 36H39.5806ZM106.536 28.2274C108.479 28.0715 110.417 26.7448 110.417 24.5661V20.0673V19.63C110.192 17.3768 108.506 16.1603 106.508 16H90.4807L90.4811 36H96.7109V28.2274H99.1907L103.24 36H110.405L105.582 28.2274H106.536ZM104.81 23.0413C104.81 23.4739 104.703 23.8536 103.928 23.8536H96.7109V19.9293H103.938C104.817 19.9293 104.81 20.506 104.81 20.8663V23.0413ZM68.6755 19.9427V16.0061H52.4768V36L68.8903 35.9957L68.8964 32.0638H58.7228L58.7238 27.7815H68.6755V23.8554H58.7238V19.9427H68.6755ZM76.4631 19.9427H70.5444V16.0061H88.6119V19.9427H82.6928V36H76.4631V19.9427ZM130.042 16.0061H116.803C114.814 16.1671 113.134 17.179 112.909 19.4427V32.3761C113.134 34.6398 114.814 35.839 116.803 36H130.042C132.031 35.839 133.711 34.6398 133.936 32.3761V19.4427C133.711 17.179 132.031 16.1671 130.042 16.0061ZM127.706 31.1701C127.677 31.3949 127.592 31.9867 126.824 32.0635H120.077C119.308 31.9867 119.168 31.3949 119.139 31.1701V20.7236C119.168 20.4985 119.274 20.019 120.043 19.9427H126.827C127.596 20.019 127.677 20.4985 127.706 20.7236V31.1701Z" fill="#FFE500"/>
</g>
<defs>
<clipPath id="clip0">
<rect width="109" height="20" fill="white" transform="translate(25 16)"/>
</clipPath>
</defs>
</svg>
