<svg width="34" height="34" viewBox="0 0 34 34" fill="none" xmlns="http://www.w3.org/2000/svg">
<circle cx="17" cy="17" r="17" fill="white"/>
<path d="M10.6389 11.5987C10.5634 10.5299 10.8005 9.47704 11.4282 8.63023C11.9724 7.86254 12.6809 7.44329 13.5349 7.19827C14.2542 6.98486 14.7257 7.24635 14.9331 8.04607C15.2295 9.24168 15.6524 10.4373 15.806 11.6962C15.8545 12.2504 15.4962 13.034 15.1083 13.4376C14.1357 14.3951 14.3378 15.0919 15.0759 16.5411C15.3049 17.0083 15.6686 17.816 16.3772 18.8851C17.1153 19.9622 17.506 20.5403 18.4543 20.0499C19.5076 19.52 20.2754 19.8608 21.0702 20.7162C21.609 21.334 22.2017 21.8647 22.7405 22.4825C23.519 23.4013 23.484 24.0346 22.8752 24.6835C21.7787 25.8784 19.9683 26.2734 18.6213 25.4731C17.8777 25.0374 17.1369 24.467 16.5469 23.8017C13.9472 20.8394 12.0721 17.3946 10.9433 13.5069C10.7628 12.8497 10.6793 12.1846 10.6389 11.5987Z" fill="#91B500"/>
</svg>
