<svg width="20" height="19" viewBox="0 0 20 19" fill="none" xmlns="http://www.w3.org/2000/svg">
<path d="M0.713867 5.38812C0.713867 2.41234 3.12621 0 6.10199 0H14.1842C17.1599 0 19.5723 2.41234 19.5723 5.38812V13.4703C19.5723 16.4461 17.1599 18.8584 14.1842 18.8584H6.10198C3.12621 18.8584 0.713867 16.4461 0.713867 13.4703V5.38812Z" fill="#0288D1"/>
<path d="M14.995 11.3237C16.0988 12.3571 16.3287 12.8624 16.3659 12.9246C16.8216 13.6908 15.8606 13.7509 15.8606 13.7509L14.0195 13.7778C14.0195 13.7778 13.6219 13.8565 13.1021 13.4941C12.4125 13.0178 11.4702 11.7752 10.9649 11.9367C10.4513 12.1003 10.6149 13.403 10.6149 13.403C10.6149 13.403 10.619 13.5624 10.5031 13.6908C10.3747 13.8254 10.1262 13.7737 10.1262 13.7737H9.59599C9.59599 13.7737 7.63065 13.7819 6.02773 12.0962C4.28191 10.2593 2.82189 6.82353 2.82189 6.82353C2.82189 6.82353 2.73284 6.60608 2.8281 6.49011C2.93786 6.35964 3.23401 6.36171 3.23401 6.36171H5.20349C5.20349 6.36171 5.3878 6.38656 5.52034 6.48597C5.63218 6.56673 5.69223 6.71998 5.69223 6.71998C5.69223 6.71998 5.93039 7.35991 6.35287 8.09717C7.17504 9.53441 7.55816 9.8492 7.83774 9.69388C8.24365 9.46814 8.12146 7.66227 8.12146 7.66227C8.12146 7.66227 8.12975 7.00578 7.91644 6.71377C7.75076 6.48597 7.44219 6.41969 7.30551 6.40106C7.19368 6.38863 7.37592 6.12769 7.61201 6.01172C7.96614 5.83776 8.59364 5.82533 9.33297 5.83361C9.9087 5.83983 10.1262 5.83154 10.1262 5.83154C10.8054 5.99722 10.5755 6.63922 10.5755 8.17172C10.5755 8.66461 10.4865 9.35631 10.8386 9.58412C10.9897 9.68559 11.5323 9.70009 12.4539 8.11581C12.8929 7.36405 13.2388 6.65785 13.2388 6.65785C13.2388 6.65785 13.3134 6.49839 13.4231 6.43212C13.5391 6.36171 13.6923 6.36171 13.6923 6.36171L15.7654 6.37206C15.7654 6.37206 16.3887 6.29337 16.4881 6.57916C16.5937 6.87738 16.2334 7.39926 15.3885 8.54036C13.9968 10.4146 13.8414 10.2406 14.995 11.3237Z" fill="white"/>
</svg>
