<svg width="20" height="19" fill="none" xmlns="http://www.w3.org/2000/svg"><path d="M13.983 18.858H5.6c-2.88 0-5.238-2.357-5.238-5.238V5.238C.363 2.358 2.72 0 5.6 0h8.382c2.881 0 5.238 2.357 5.238 5.238v8.382c0 2.881-2.357 5.238-5.238 5.238z" fill="#304FFE"/><path d="M.363 5.238v8.382c0 2.881 2.357 5.238 5.238 5.238h8.382c2.881 0 5.238-2.357 5.238-5.238V5.238c0-.523-.052-.995-.21-1.466A17.2 17.2 0 0 0 8.222 0c-1.94 0-3.826.314-5.607.943A5.213 5.213 0 0 0 .363 5.238z" fill="#304FFE" fill-opacity=".29"/><path d="M8.22 1.047c-2.619 0-5.028.629-7.229 1.677a5.265 5.265 0 0 0-.628 2.514v8.382c0 2.88 2.357 5.238 5.238 5.238h8.382c2.881 0 5.238-2.357 5.238-5.238V5.343a16.134 16.134 0 0 0-11-4.296z" fill="#6200EA"/><path d="M19.221 6.81c-2.776-2.88-6.653-4.714-11-4.714-2.83 0-5.5.785-7.753 2.147a5.802 5.802 0 0 0-.105.996v8.381c0 2.881 2.357 5.239 5.238 5.239h8.382c2.881 0 5.238-2.358 5.238-5.239V6.81z" fill="#673AB7"/><path d="M19.221 8.382a14.078 14.078 0 0 0-11-5.239c-2.934 0-5.606.89-7.858 2.41v8.067c0 2.881 2.357 5.238 5.238 5.238h8.382c2.881 0 5.238-2.357 5.238-5.238V8.382z" fill="#8E24AA"/><path d="M19.221 13.62v-3.458c-2.357-3.562-6.39-5.972-11-5.972-2.934 0-5.658.996-7.858 2.62v6.81c0 2.88 2.357 5.238 5.238 5.238h8.382c2.881 0 5.238-2.357 5.238-5.238z" fill="#C2185B"/><path d="M19.221 13.62v-1.258c-1.886-4.19-6.076-7.124-11-7.124-2.986 0-5.763 1.1-7.858 2.933v5.448c0 2.881 2.357 5.239 5.238 5.239h8.382c2.881 0 5.238-2.358 5.238-5.239z" fill="#D81B60"/><path d="M19.012 15.087c-.996-5.03-5.448-8.8-10.791-8.8a10.907 10.907 0 0 0-7.858 3.3v4.033c0 2.881 2.357 5.238 5.238 5.238h8.382c2.357 0 4.4-1.571 5.029-3.771z" fill="#F50057"/><path d="M18.121 16.763c-.262-5.239-4.557-9.43-9.9-9.43-3.196 0-6.025 1.52-7.858 3.877v2.41c0 2.88 2.357 5.238 5.238 5.238h8.382c1.676 0 3.195-.838 4.138-2.095z" fill="#FF1744"/><path d="M8.22 8.381c-3.404 0-6.338 1.886-7.857 4.715v.524c0 2.88 2.357 5.238 5.238 5.238h8.382c1.152 0 2.252-.366 3.09-1.047 0-.158.053-.367.053-.524A8.898 8.898 0 0 0 8.22 8.38z" fill="#FF5722"/><path d="M8.22 9.43c-3.666 0-6.705 2.461-7.595 5.866.68 2.096 2.671 3.562 4.976 3.562h8.382c.733 0 1.362-.157 1.99-.419.053-.366.105-.785.105-1.152A7.847 7.847 0 0 0 8.22 9.429z" fill="#FF6F00"/><path d="M8.22 10.477c-3.614 0-6.548 2.776-6.757 6.286.943 1.257 2.462 2.096 4.138 2.096h8.382c.314 0 .576-.053.89-.105.105-.472.158-.943.158-1.467a6.796 6.796 0 0 0-6.81-6.81z" fill="#FF9800"/><path d="M13.773 18.858c.158-.524.21-1.047.21-1.571a5.746 5.746 0 0 0-5.762-5.763 5.746 5.746 0 0 0-5.763 5.763c0 .157 0 .366.053.524.89.628 1.938 1.047 3.09 1.047h8.172z" fill="#FFC107"/><path d="M8.22 12.571a4.695 4.695 0 0 0-4.714 4.715c0 .419.052.838.157 1.205.576.262 1.257.366 1.938.366h7.072a4.94 4.94 0 0 0 .262-1.571A4.695 4.695 0 0 0 8.22 12.57z" fill="#FFD54F"/><path d="M8.22 13.672a3.644 3.644 0 0 0-3.666 3.667c0 .524.104.996.314 1.467.262.052.471.052.733.052h5.972c.21-.471.314-.995.314-1.519a3.644 3.644 0 0 0-3.666-3.667z" fill="#FFE082"/><path d="M8.22 14.72a2.594 2.594 0 0 0-2.619 2.619c0 .576.21 1.1.524 1.52h4.19c.315-.42.525-.944.525-1.52a2.594 2.594 0 0 0-2.62-2.62z" fill="#FFECB3"/><path d="M12.935 16.763H6.65a4.203 4.203 0 0 1-4.19-4.19V6.286a4.203 4.203 0 0 1 4.19-4.19h6.286a4.203 4.203 0 0 1 4.191 4.19v6.287a4.203 4.203 0 0 1-4.19 4.19zM6.65 3.143a3.152 3.152 0 0 0-3.143 3.143v6.287a3.152 3.152 0 0 0 3.143 3.143h6.286a3.152 3.152 0 0 0 3.143-3.143V6.286a3.152 3.152 0 0 0-3.143-3.143H6.65z" fill="#fff"/><path d="M9.792 13.095a3.644 3.644 0 0 1-3.667-3.667A3.644 3.644 0 0 1 9.792 5.76a3.644 3.644 0 0 1 3.667 3.667 3.644 3.644 0 0 1-3.667 3.667zm0-6.287a2.594 2.594 0 0 0-2.62 2.62 2.594 2.594 0 0 0 2.62 2.619 2.594 2.594 0 0 0 2.62-2.62 2.594 2.594 0 0 0-2.62-2.619zm4.191-1.57c0 .315-.21.524-.524.524-.314 0-.524-.21-.524-.524 0-.314.21-.524.524-.524.314 0 .524.21.524.524z" fill="#fff"/></svg>