<svg width="104" height="29" fill="none" xmlns="http://www.w3.org/2000/svg"><g clip-path="url(#clip0)"><path d="M.454 8.519c0-1.178 0-1.994.091-2.674.09-.634.227-.997.5-1.314.272-.272.635-.453 1.226-.634.636-.136 1.453-.227 2.634-.363C40.328-.09 62.536.045 99.005 3.58c1.18.09 1.998.18 2.633.362.636.136 1 .317 1.272.635.273.271.409.68.5 1.314.09.634.09 1.495.09 2.673v11.917c0 1.178 0 2.04-.09 2.674-.091.634-.227.997-.5 1.314-.272.272-.636.498-1.272.634-.635.136-1.453.227-2.634.363-35.968 3.534-58.13 3.625-94.1 0-1.18-.136-1.997-.182-2.633-.363-.59-.181-.954-.362-1.226-.634-.273-.272-.41-.68-.5-1.314-.09-.635-.09-1.496-.09-2.674V8.52z" stroke="#fff" stroke-width="2"/><path fill-rule="evenodd" clip-rule="evenodd" d="M17.757 13.412a3.49 3.49 0 0 0-.954.136l.046-.226a9.09 9.09 0 0 0 1.18-.227c1-.272 1.59-.77 1.863-1.404.181-.499.136-.907-.182-1.314-.318-.408-.772-.635-1.362-.59-.59 0-1.136.182-1.635.544-.5.363-.909.77-1.181 1.314a7.274 7.274 0 0 0-.727 1.722 5.97 5.97 0 0 0-.272 1.767c0 .77.227 1.36.636 1.858.408.499 1.044.77 1.77.77.818 0 1.545-.271 2.09-.815.545-.544.817-1.224.727-2.04-.046-.362-.137-.634-.364-.905a1.614 1.614 0 0 0-.726-.499 5.605 5.605 0 0 0-.909-.09zm-.681-.815c.273-.906.545-1.405.863-1.405.181 0 .272.09.272.272 0 .136-.045.227-.136.363-.09.136-.182.226-.272.317-.091.09-.227.136-.318.226-.136.09-.182.136-.227.136l-.182.09zm.182 1.858c.454.09.68.408.635 1.042 0 .226-.09.453-.227.725-.136.272-.317.408-.59.408-.182 0-.318-.09-.409-.272a1.445 1.445 0 0 1-.136-.635v-.68c0-.18.045-.362.09-.543h.092c.09 0 .136-.045.227-.045h.318z" fill="#fff"/><path d="M32.472 9.787c-.091-.226-.137-.317-.273-.271a.732.732 0 0 1-.318.18 5.616 5.616 0 0 1-.454.137c-.182.045-.318.045-.5.09-.136 0-.317.046-.59.046h-1.271c-.318 0-.5-.046-.636-.046-.137 0-.364 0-.681-.045-.318-.045-.546-.045-.636-.045h-.727c-.227 0-.545.045-1 .09-.453.046-.862.136-1.225.363-.364.181-.636.408-.818.725a2.88 2.88 0 0 0-.272.816c-.046.317 0 .589.136.906.09.272.273.544.545.725.318.226.636.317.954.317.363 0 .636-.045.863-.181.227-.136.408-.272.5-.408.09-.136.135-.227.18-.272 0-.09 0-.136-.045-.136a.627.627 0 0 0-.181-.136c-.091-.045-.136-.136-.182-.181-.09-.09-.09-.181-.136-.363 0-.18 0-.317.045-.498.046-.181.182-.317.363-.408.182-.136.41-.181.682-.136h.045l-.953 6.57v.046h2.315c.046 0 .046 0 .046-.045l.727-6.027c.863.272 1.498.408 1.907.408.727 0 1.18-.317 1.453-.952.182-.498.227-.86.137-1.269z" fill="#fff"/><path fill-rule="evenodd" clip-rule="evenodd" d="M36.514 16.222c-.046-.181 0-.453 0-.77.045-.499.227-1.496.454-3.082 0-.045 0-.045-.046-.045h-2.134v.045l-.091.725c-.273-.68-.772-.997-1.408-.997-.636 0-1.18.272-1.635.77-.454.544-.681 1.179-.772 1.904-.045.498-.045.951.045 1.405.091.453.318.815.59 1.132.273.318.637.453 1.045.453.682 0 1.272-.407 1.772-1.178 0 .363.136.68.363.861.227.227.545.317.908.317.273 0 .545-.09.818-.226.272-.181.454-.317.5-.498v-.136c-.046-.046-.092-.046-.137-.091-.045-.045-.136-.09-.182-.181a.903.903 0 0 1-.09-.408zm-2.271-.317c-.182.272-.409.408-.636.408-.227 0-.409-.136-.5-.408a2.272 2.272 0 0 1-.09-.997c.045-.408.136-.77.317-.997.182-.272.364-.408.636-.408.227 0 .409.136.5.408.09.272.136.589.09.997a2.865 2.865 0 0 1-.317.997z" fill="#fff"/><path d="M43.053 16.086c.046-.09.046-.136 0-.181-.045-.046-.09-.046-.136 0a3.46 3.46 0 0 1-.954.362c-.318.09-.636.09-.953.09a1.07 1.07 0 0 1-.727-.407c-.182-.272-.273-.59-.273-1.042 0-.408.091-.816.273-1.133.182-.363.409-.544.681-.544.136 0 .273.046.318.181.09.136.09.318.09.544 0 .046 0 .09-.044.181v.227c0 .045.09.09.272.136.136.045.318.045.454.045.273 0 .545-.09.772-.317.227-.226.364-.453.364-.725.045-.453-.137-.816-.545-1.087-.41-.272-.954-.408-1.59-.408-.817.045-1.499.317-2.09.86-.59.544-.953 1.179-1.044 1.95-.09.77.091 1.45.59 1.993.5.544 1.136.816 1.908.816.364 0 .681-.046 1-.182.317-.136.59-.272.817-.498.227-.181.409-.363.5-.544.181-.045.272-.181.317-.317zm9.401.181c-.045-.181 0-.453 0-.77l.182-1.631c.09-.499 0-.907-.273-1.224a1.125 1.125 0 0 0-.953-.498c-.318 0-.636.09-1 .317-.317.181-.635.498-.862.951-.046-.362-.182-.68-.41-.906-.226-.226-.499-.317-.817-.317-.317 0-.635.09-.953.272a2.385 2.385 0 0 0-.863.906c-.046-.362-.136-.68-.364-.86-.227-.227-.5-.318-.862-.318-.273 0-.545.09-.818.227-.272.136-.454.317-.5.498-.045.045 0 .09.046.136.045.045.136.09.182.136.09.045.136.181.181.408.046.226.046.498 0 .906-.045.498-.227 1.495-.454 3.081l.046.046h2.134v-.046l.363-2.81a2.16 2.16 0 0 1 .273-.815c.181-.272.363-.408.545-.362.181.045.272.226.227.589 0 .181-.045.408-.09.725-.046.453-.183 1.314-.319 2.628l.046.045h2.134v-.045l.227-2.628v-.181c.046-.318.136-.59.273-.816.181-.272.363-.408.545-.363.181.046.272.227.227.59l-.227 2.039c-.046.498.045.86.318 1.178.272.272.59.407 1.044.407.273 0 .545-.09.818-.226.272-.181.454-.317.5-.498.044-.046.044-.091 0-.136-.046-.046-.092-.046-.137-.091a.354.354 0 0 1-.182-.181c-.181-.046-.227-.182-.227-.363zm.227-6.344c-.045-.136-.09-.18-.136-.136 0 0-.045.046-.136.091-.091.045-.182.136-.318.181-.091.046-.273.091-.5.136-.227.046-.454.046-.681.046-.363 0-.817-.091-1.408-.227-.59-.136-1.135-.226-1.59-.226h-.226c-.909.045-1.59.362-2.044.996-.227.318-.318.59-.273.816 0 .09.046.09.091.09 0 0 .091-.045.227-.135.137-.09.318-.182.59-.227.228-.09.546-.09.864-.09.272 0 .726.045 1.407.18.682.137 1.181.182 1.5.182 1.18.045 1.997-.272 2.452-.86a1.09 1.09 0 0 0 .181-.817z" fill="#fff"/><path fill-rule="evenodd" clip-rule="evenodd" d="M59.357 12.408c-.272-.272-.636-.408-1.044-.408-.682 0-1.272.408-1.772 1.178-.045-.362-.136-.68-.363-.86-.227-.227-.545-.318-.863-.318-.272 0-.545.09-.817.227-.273.136-.454.317-.545.498-.046.045 0 .09 0 .136.045.045.09.09.181.136.091.045.137.181.137.408.045.226.045.498 0 .906-.046.498-.273 2.266-.636 5.392l.045.045h2.09s.045 0 .045-.045v-.045l.363-3.036c.273.68.772.997 1.408.997.636 0 1.18-.272 1.635-.816.454-.544.727-1.223.817-1.994.046-.498.046-.951-.045-1.359a2.688 2.688 0 0 0-.636-1.042zm-2.452 3.851c-.227 0-.409-.136-.545-.407-.091-.272-.136-.635-.091-1.043a2.57 2.57 0 0 1 .318-.996c.182-.272.363-.408.636-.408.272 0 .408.136.545.408.09.271.136.589.09.996-.045.408-.181.77-.317 1.043-.182.271-.364.407-.636.407zm9.991-1.079c.09-.77-.09-1.45-.59-2.04-.5-.588-1.136-.906-1.999-.95a3.14 3.14 0 0 0-2.18.679c-.635.498-.999 1.133-1.09 1.948-.09.77.091 1.45.59 2.04.5.588 1.136.905 2 .95.862.046 1.589-.18 2.18-.679.635-.498.998-1.133 1.09-1.948zm-3.724.951a3.19 3.19 0 0 1-.09-1.178c.045-.498.18-.86.362-1.178.182-.317.41-.453.727-.408.273 0 .5.181.59.499.091.317.137.725.091 1.178-.045.498-.181.906-.363 1.178-.182.272-.409.408-.681.408-.318 0-.5-.182-.636-.499z" fill="#fff"/><path d="M73.209 16.403c-.046-.226-.046-.498 0-.906l.363-3.081-.045-.046h-1.999c-.045 0-.045 0-.045.046l-.227 1.903h-1l.092-.59c.045-.498-.046-.86-.273-1.132a1.302 1.302 0 0 0-.999-.453c-.272 0-.545.09-.817.226-.273.136-.455.318-.5.499-.046.045 0 .09.045.136.046.045.137.09.182.136.09.045.136.18.182.407.045.227.045.499 0 .907-.046.498-.227 1.495-.455 3.08l.046.046h2.134v-.045l.228-1.994h.999l-.091.68c-.046.498.045.86.272 1.133.227.272.59.407 1 .407.272 0 .544-.09.817-.226.272-.136.454-.317.5-.498.045-.046 0-.091-.046-.136-.045-.046-.136-.091-.182-.136-.045 0-.136-.136-.181-.363z" fill="#fff"/><path fill-rule="evenodd" clip-rule="evenodd" d="M80.43 15.18c.09-.77-.091-1.45-.59-2.04-.5-.588-1.136-.906-1.999-.95a3.14 3.14 0 0 0-2.18.679c-.636.498-.999 1.133-1.09 1.948-.09.77.091 1.45.59 2.04.5.588 1.136.905 1.999.95.863.046 1.59-.18 2.18-.679.635-.498.999-1.133 1.09-1.948zm-3.724.951a3.172 3.172 0 0 1-.091-1.178 2.77 2.77 0 0 1 .363-1.178c.182-.317.409-.453.727-.408.272 0 .5.181.59.499.091.317.136.725.091 1.178-.045.498-.182.906-.363 1.178-.182.272-.409.408-.681.408-.318 0-.5-.182-.636-.499z" fill="#fff"/><path d="M88.468 17.581l.545-5.165c0-.046 0-.046-.045-.046H86.65c-.045 0-.045 0-.045.046l-1.271 1.948h-.046l-.681-1.948-.046-.046h-2.089c-.045 0-.045.046-.045.046v.226c0 .181-.046.363-.09.68l-.137.816a5.48 5.48 0 0 1-.227.815 5.166 5.166 0 0 1-.409.861c-.182.227-.272.408-.409.498-.09.091-.227.182-.272.227l-.136.136c0 .09 0 .227.09.408.046.181.182.317.364.498.181.181.454.272.726.272.818 0 1.363-.544 1.68-1.631 0-.045.046-.136.092-.272 0-.045.045-.136.045-.227 0-.09.045-.18.045-.271v-.589h.046l.772 2.673c.045.045.045.09.136.09h.273c.09 0 .136-.045.136-.09l1.635-2.945h.045l-.227.997c-.09.725-.182 1.359-.272 1.993l.045.046h1.998c.046 0 .091-.046.091-.046z" fill="#fff"/></g><defs><clipPath id="clip0"><path fill="#fff" d="M0 0h104v29H0z"/></clipPath></defs></svg>