<svg width="19" height="19" fill="none" xmlns="http://www.w3.org/2000/svg"><rect width="19" height="19" rx="5" fill="#FEA32A"/><g clip-path="url(#clip0)" fill="#fff"><path d="M9.508 11.044c-.775-.081-1.474-.272-2.073-.74-.074-.058-.15-.114-.219-.18-.261-.251-.288-.54-.08-.836.177-.254.474-.322.784-.176.06.028.117.063.171.101 1.116.766 2.648.788 3.767.035a1.02 1.02 0 0 1 .367-.19.576.576 0 0 1 .66.263c.164.267.162.528-.04.735-.31.318-.682.548-1.096.708-.391.152-.82.228-1.244.279.064.07.095.104.135.144.575.578 1.154 1.155 1.728 1.735.195.198.236.443.128.673a.682.682 0 0 1-.64.399.623.623 0 0 1-.404-.207c-.434-.438-.877-.867-1.303-1.312-.124-.13-.183-.105-.293.007a87.9 87.9 0 0 1-1.328 1.334c-.2.198-.44.233-.672.12a.68.68 0 0 1-.393-.626c.008-.171.093-.303.21-.42l1.707-1.71c.038-.038.073-.078.128-.136z"/><path d="M9.98 9.062a2.532 2.532 0 0 1-2.509-2.537A2.535 2.535 0 0 1 10.011 4c1.399.004 2.522 1.149 2.515 2.564-.007 1.382-1.149 2.502-2.546 2.498zm1.257-2.533A1.233 1.233 0 0 0 10 5.293a1.234 1.234 0 0 0-1.24 1.25 1.233 1.233 0 0 0 1.247 1.227 1.23 1.23 0 0 0 1.23-1.241z"/></g><defs><clipPath id="clip0"><path fill="#fff" transform="translate(5 4)" d="M0 0h10v10H0z"/></clipPath></defs></svg>