<svg width="160" height="52" fill="none" xmlns="http://www.w3.org/2000/svg"><rect width="159.768" height="52" rx="10" fill="#003D7C"/><g clip-path="url(#clip0)"><path fill-rule="evenodd" clip-rule="evenodd" d="M39.58 36l4.175-12.558V36h6.23V16.006h-8.41l-4.05 9.997-4.05-9.997h-8.41V36h6.23V23.442L35.5 36h4.08zm66.956-7.773c1.943-.155 3.881-1.482 3.881-3.66V19.63c-.225-2.253-1.911-3.47-3.909-3.63H90.481v20h6.23v-7.773h2.48L103.24 36h7.165l-4.823-7.773h.954zm-1.726-5.186c0 .433-.107.813-.882.813h-7.217v-3.925h7.227c.879 0 .872.577.872.937v2.175zm-36.135-3.098v-3.937H52.477V36l16.413-.004.006-3.932H58.723v-4.282h9.953v-3.927h-9.952v-3.912h9.952zm7.788 0h-5.919v-3.937h18.068v3.937h-5.92V36h-6.229V19.943zm53.579-3.937h-13.239c-1.989.161-3.669 1.173-3.894 3.437v12.933c.225 2.264 1.905 3.463 3.894 3.624h13.239c1.989-.161 3.669-1.36 3.894-3.624V19.443c-.225-2.264-1.905-3.276-3.894-3.437zm-2.336 15.164c-.029.225-.114.817-.882.893h-6.747c-.769-.076-.909-.668-.938-.893V20.724c.029-.226.135-.705.904-.781h6.784c.769.076.85.555.879.78V31.17z" fill="#FFE500"/></g><defs><clipPath id="clip0"><path fill="#fff" transform="translate(25 16)" d="M0 0h109v20H0z"/></clipPath></defs></svg>