<svg width="34" height="34" fill="none" xmlns="http://www.w3.org/2000/svg"><circle cx="17" cy="17" r="17" fill="#fff"/><path d="M10.639 11.599c-.076-1.07.162-2.122.79-2.969.543-.767 1.252-1.187 2.106-1.432.72-.213 1.19.048 1.398.848.296 1.196.72 2.391.873 3.65.049.554-.31 1.338-.698 1.742-.972.957-.77 1.654-.032 3.103.229.467.593 1.275 1.301 2.344.738 1.077 1.129 1.655 2.077 1.165 1.054-.53 1.821-.19 2.616.666.539.618 1.132 1.149 1.67 1.767.779.918.744 1.552.135 2.2-1.096 1.195-2.907 1.59-4.254.79-.743-.436-1.484-1.006-2.074-1.671-2.6-2.963-4.475-6.407-5.604-10.295a9.802 9.802 0 0 1-.304-1.908z" fill="#91B500"/></svg>