<svg width="20" height="19" fill="none" xmlns="http://www.w3.org/2000/svg"><path d="M.714 5.388A5.388 5.388 0 0 1 6.102 0h8.082a5.388 5.388 0 0 1 5.388 5.388v8.082a5.388 5.388 0 0 1-5.388 5.388H6.102A5.388 5.388 0 0 1 .714 13.47V5.388z" fill="#0288D1"/><path d="M14.995 11.324c1.104 1.033 1.334 1.538 1.37 1.6.457.767-.504.827-.504.827l-1.841.027s-.398.079-.918-.284c-.69-.476-1.632-1.719-2.137-1.557-.514.163-.35 1.466-.35 1.466s.004.16-.112.288c-.128.134-.377.083-.377.083h-.53s-1.965.008-3.568-1.678C4.282 10.26 2.822 6.824 2.822 6.824s-.09-.218.006-.334c.11-.13.406-.128.406-.128h1.97s.184.025.316.124c.112.08.172.234.172.234s.238.64.66 1.377c.823 1.437 1.206 1.752 1.486 1.597.406-.226.283-2.032.283-2.032s.009-.656-.205-.948c-.165-.228-.474-.294-.61-.313-.112-.012.07-.273.306-.39.354-.173.982-.186 1.721-.177.576.006.793-.002.793-.002.68.165.45.807.45 2.34 0 .493-.09 1.184.263 1.412.15.102.693.116 1.615-1.468.439-.752.785-1.458.785-1.458s.074-.16.184-.226c.116-.07.27-.07.27-.07l2.072.01s.624-.079.723.207c.106.298-.255.82-1.1 1.961-1.391 1.875-1.547 1.7-.393 2.784z" fill="#fff"/></svg>