<svg width="12" height="17" viewBox="0 0 12 17" fill="none" xmlns="http://www.w3.org/2000/svg"><path d="M.686 4.462c-.066-.93.14-1.848.688-2.586C1.848 1.208 2.465.842 3.209.63c.627-.186 1.037.042 1.218.739.258 1.041.627 2.083.76 3.18.043.482-.27 1.165-.607 1.516-.848.835-.672 1.442-.029 2.704.2.407.517 1.11 1.134 2.042.643.938.983 1.442 1.81 1.015.917-.462 1.586-.165 2.278.58.47.538.986 1 1.455 1.539.679.8.648 1.352.118 1.917-.956 1.041-2.533 1.385-3.706.688a7.535 7.535 0 0 1-1.807-1.456C3.568 12.513 1.935 9.512.95 6.125a8.54 8.54 0 0 1-.265-1.663z" fill="#fff"/></svg>